<mxfile host="app.diagrams.net" modified="2022-11-09T05:48:56.272Z" agent="5.0 (Macintosh; Intel Mac OS X 10_15_7) AppleWebKit/537.36 (KHTML, like Gecko) Chrome/107.0.0.0 Safari/537.36" etag="Ba8aHv83H1vc2maLX_mM" version="20.5.3" type="github">
  <diagram id="4UsPldgfQQk3tsiZ34lR" name="Page-1">
    <mxGraphModel dx="2276" dy="794" grid="1" gridSize="10" guides="1" tooltips="1" connect="1" arrows="1" fold="1" page="1" pageScale="1" pageWidth="850" pageHeight="1100" math="0" shadow="0">
      <root>
        <mxCell id="0" />
        <mxCell id="1" parent="0" />
        <mxCell id="Gl6gJ1XVhU7fnhNbAst0-1" value="" style="rounded=0;whiteSpace=wrap;html=1;fillColor=#f5f5f5;fontColor=#333333;strokeColor=#666666;" vertex="1" parent="1">
          <mxGeometry x="155" y="170" width="315" height="390" as="geometry" />
        </mxCell>
        <mxCell id="Gl6gJ1XVhU7fnhNbAst0-2" value="&lt;font color=&quot;#000000&quot;&gt;p2p network&lt;/font&gt;" style="shape=delay;whiteSpace=wrap;html=1;fontSize=13;fontColor=#FF6666;" vertex="1" parent="1">
          <mxGeometry x="420" y="235" width="100" height="50" as="geometry" />
        </mxCell>
        <mxCell id="Gl6gJ1XVhU7fnhNbAst0-3" value="&lt;font style=&quot;font-size: 16px; user-select: auto;&quot;&gt;Beacon Node&lt;/font&gt;" style="rounded=1;whiteSpace=wrap;html=1;fillColor=#dae8fc;strokeColor=#6c8ebf;" vertex="1" parent="1">
          <mxGeometry x="202" y="220" width="220" height="80" as="geometry" />
        </mxCell>
        <mxCell id="Gl6gJ1XVhU7fnhNbAst0-4" value="&lt;font style=&quot;font-size: 16px; user-select: auto;&quot;&gt;Execution Engine&lt;/font&gt;" style="rounded=1;whiteSpace=wrap;html=1;fillColor=#f8cecc;strokeColor=#b85450;" vertex="1" parent="1">
          <mxGeometry x="202.5" y="440" width="220" height="80" as="geometry" />
        </mxCell>
        <mxCell id="Gl6gJ1XVhU7fnhNbAst0-5" value="" style="endArrow=none;html=1;rounded=0;strokeColor=#FF6666;strokeWidth=2;fontSize=16;entryX=0.25;entryY=1;entryDx=0;entryDy=0;exitX=0.25;exitY=0;exitDx=0;exitDy=0;" edge="1" parent="1" source="Gl6gJ1XVhU7fnhNbAst0-4" target="Gl6gJ1XVhU7fnhNbAst0-3">
          <mxGeometry width="50" height="50" relative="1" as="geometry">
            <mxPoint x="264" y="4" as="sourcePoint" />
            <mxPoint x="610" y="260" as="targetPoint" />
          </mxGeometry>
        </mxCell>
        <mxCell id="Gl6gJ1XVhU7fnhNbAst0-6" value="&lt;font style=&quot;font-size: 13px;&quot;&gt;JWT authentication&lt;/font&gt;" style="text;html=1;strokeColor=none;fillColor=none;align=center;verticalAlign=middle;whiteSpace=wrap;rounded=0;fontSize=16;fontColor=#FF6666;" vertex="1" parent="1">
          <mxGeometry x="190" y="355" width="70" height="40" as="geometry" />
        </mxCell>
        <mxCell id="Gl6gJ1XVhU7fnhNbAst0-7" value="" style="endArrow=classic;html=1;rounded=0;strokeColor=#000000;strokeWidth=2;fontSize=13;entryX=0.75;entryY=1;entryDx=0;entryDy=0;exitX=0.75;exitY=0;exitDx=0;exitDy=0;dashed=1;dashPattern=1 1;" edge="1" parent="1" source="Gl6gJ1XVhU7fnhNbAst0-4" target="Gl6gJ1XVhU7fnhNbAst0-3">
          <mxGeometry width="50" height="50" relative="1" as="geometry">
            <mxPoint x="361" y="460" as="sourcePoint" />
            <mxPoint x="280" y="410" as="targetPoint" />
          </mxGeometry>
        </mxCell>
        <mxCell id="Gl6gJ1XVhU7fnhNbAst0-8" value="" style="endArrow=classic;html=1;rounded=0;strokeColor=#000000;strokeWidth=2;fontSize=13;exitX=0.606;exitY=1;exitDx=0;exitDy=0;exitPerimeter=0;entryX=0.602;entryY=-0.017;entryDx=0;entryDy=0;entryPerimeter=0;" edge="1" parent="1" source="Gl6gJ1XVhU7fnhNbAst0-3" target="Gl6gJ1XVhU7fnhNbAst0-4">
          <mxGeometry width="50" height="50" relative="1" as="geometry">
            <mxPoint x="322.5" y="410" as="sourcePoint" />
            <mxPoint x="288" y="400" as="targetPoint" />
          </mxGeometry>
        </mxCell>
        <mxCell id="Gl6gJ1XVhU7fnhNbAst0-9" value="Call Engine API" style="text;html=1;strokeColor=none;fillColor=none;align=center;verticalAlign=middle;whiteSpace=wrap;rounded=0;fontSize=13;" vertex="1" parent="1">
          <mxGeometry x="277" y="360" width="70" height="30" as="geometry" />
        </mxCell>
        <mxCell id="Gl6gJ1XVhU7fnhNbAst0-10" value="Return Results" style="text;html=1;strokeColor=none;fillColor=none;align=center;verticalAlign=middle;whiteSpace=wrap;rounded=0;fontSize=13;" vertex="1" parent="1">
          <mxGeometry x="360" y="360" width="60" height="30" as="geometry" />
        </mxCell>
        <mxCell id="Gl6gJ1XVhU7fnhNbAst0-11" value="&lt;font color=&quot;#000000&quot;&gt;p2p network&lt;/font&gt;" style="shape=delay;whiteSpace=wrap;html=1;fontSize=13;fontColor=#FF6666;" vertex="1" parent="1">
          <mxGeometry x="422.5" y="455" width="100" height="50" as="geometry" />
        </mxCell>
        <mxCell id="Gl6gJ1XVhU7fnhNbAst0-12" value="" style="endArrow=classic;html=1;rounded=0;strokeColor=#000000;strokeWidth=1.5;fontSize=13;fontColor=#000000;dashed=1;exitX=1;exitY=0.5;exitDx=0;exitDy=0;" edge="1" parent="1" source="Gl6gJ1XVhU7fnhNbAst0-2">
          <mxGeometry width="50" height="50" relative="1" as="geometry">
            <mxPoint x="720" y="330" as="sourcePoint" />
            <mxPoint x="600" y="200" as="targetPoint" />
          </mxGeometry>
        </mxCell>
        <mxCell id="Gl6gJ1XVhU7fnhNbAst0-13" value="" style="endArrow=classic;html=1;rounded=0;strokeColor=#000000;strokeWidth=1.5;fontSize=13;fontColor=#000000;dashed=1;exitX=1;exitY=0.5;exitDx=0;exitDy=0;" edge="1" parent="1" source="Gl6gJ1XVhU7fnhNbAst0-2">
          <mxGeometry width="50" height="50" relative="1" as="geometry">
            <mxPoint x="530" y="270" as="sourcePoint" />
            <mxPoint x="600" y="260" as="targetPoint" />
          </mxGeometry>
        </mxCell>
        <mxCell id="Gl6gJ1XVhU7fnhNbAst0-14" value="" style="endArrow=classic;html=1;rounded=0;strokeColor=#000000;strokeWidth=1.5;fontSize=13;fontColor=#000000;dashed=1;exitX=1;exitY=0.5;exitDx=0;exitDy=0;" edge="1" parent="1" source="Gl6gJ1XVhU7fnhNbAst0-2">
          <mxGeometry width="50" height="50" relative="1" as="geometry">
            <mxPoint x="530" y="270" as="sourcePoint" />
            <mxPoint x="600" y="320" as="targetPoint" />
          </mxGeometry>
        </mxCell>
        <mxCell id="Gl6gJ1XVhU7fnhNbAst0-15" value="" style="endArrow=classic;html=1;rounded=0;strokeColor=#000000;strokeWidth=1.5;fontSize=13;fontColor=#000000;dashed=1;exitX=1;exitY=0.5;exitDx=0;exitDy=0;" edge="1" parent="1">
          <mxGeometry width="50" height="50" relative="1" as="geometry">
            <mxPoint x="522.5" y="480" as="sourcePoint" />
            <mxPoint x="602.5" y="420" as="targetPoint" />
          </mxGeometry>
        </mxCell>
        <mxCell id="Gl6gJ1XVhU7fnhNbAst0-16" value="" style="endArrow=classic;html=1;rounded=0;strokeColor=#000000;strokeWidth=1.5;fontSize=13;fontColor=#000000;dashed=1;exitX=1;exitY=0.5;exitDx=0;exitDy=0;" edge="1" parent="1">
          <mxGeometry width="50" height="50" relative="1" as="geometry">
            <mxPoint x="522.5" y="480" as="sourcePoint" />
            <mxPoint x="602.5" y="480" as="targetPoint" />
          </mxGeometry>
        </mxCell>
        <mxCell id="Gl6gJ1XVhU7fnhNbAst0-17" value="" style="endArrow=classic;html=1;rounded=0;strokeColor=#000000;strokeWidth=1.5;fontSize=13;fontColor=#000000;dashed=1;exitX=1;exitY=0.5;exitDx=0;exitDy=0;" edge="1" parent="1">
          <mxGeometry width="50" height="50" relative="1" as="geometry">
            <mxPoint x="522.5" y="480" as="sourcePoint" />
            <mxPoint x="602.5" y="540" as="targetPoint" />
          </mxGeometry>
        </mxCell>
        <mxCell id="Gl6gJ1XVhU7fnhNbAst0-18" value="Broadcast attestations and slashings" style="text;html=1;strokeColor=none;fillColor=none;align=center;verticalAlign=middle;whiteSpace=wrap;rounded=0;fontSize=13;fontColor=#000000;" vertex="1" parent="1">
          <mxGeometry x="600" y="242.5" width="140" height="35" as="geometry" />
        </mxCell>
        <mxCell id="Gl6gJ1XVhU7fnhNbAst0-19" value="Broadcast transactions and state" style="text;html=1;strokeColor=none;fillColor=none;align=center;verticalAlign=middle;whiteSpace=wrap;rounded=0;fontSize=13;fontColor=#000000;" vertex="1" parent="1">
          <mxGeometry x="600" y="462.5" width="140" height="35" as="geometry" />
        </mxCell>
        <mxCell id="Gl6gJ1XVhU7fnhNbAst0-20" value="" style="endArrow=classic;startArrow=classic;html=1;rounded=0;strokeColor=#000000;strokeWidth=1.5;fontSize=13;fontColor=#000000;entryX=0;entryY=0.5;entryDx=0;entryDy=0;" edge="1" parent="1" target="Gl6gJ1XVhU7fnhNbAst0-3">
          <mxGeometry width="50" height="50" relative="1" as="geometry">
            <mxPoint x="40" y="260" as="sourcePoint" />
            <mxPoint x="110" y="235" as="targetPoint" />
          </mxGeometry>
        </mxCell>
        <mxCell id="Gl6gJ1XVhU7fnhNbAst0-21" value="" style="endArrow=classic;startArrow=classic;html=1;rounded=0;strokeColor=#000000;strokeWidth=1.5;fontSize=13;fontColor=#000000;entryX=0;entryY=0.5;entryDx=0;entryDy=0;" edge="1" parent="1">
          <mxGeometry width="50" height="50" relative="1" as="geometry">
            <mxPoint x="40.5" y="479.5" as="sourcePoint" />
            <mxPoint x="202.5" y="479.5" as="targetPoint" />
          </mxGeometry>
        </mxCell>
        <mxCell id="Gl6gJ1XVhU7fnhNbAst0-22" value="Beacon-APIs" style="text;html=1;strokeColor=none;fillColor=none;align=center;verticalAlign=middle;whiteSpace=wrap;rounded=0;fontSize=13;fontColor=#000000;" vertex="1" parent="1">
          <mxGeometry x="70" y="242.5" width="83" height="20" as="geometry" />
        </mxCell>
        <mxCell id="Gl6gJ1XVhU7fnhNbAst0-23" value="Execution-APIs" style="text;html=1;strokeColor=none;fillColor=none;align=center;verticalAlign=middle;whiteSpace=wrap;rounded=0;fontSize=13;fontColor=#000000;" vertex="1" parent="1">
          <mxGeometry x="56.5" y="462.5" width="110" height="17.5" as="geometry" />
        </mxCell>
        <mxCell id="Gl6gJ1XVhU7fnhNbAst0-24" value="Validators" style="shape=umlActor;verticalLabelPosition=bottom;verticalAlign=top;html=1;outlineConnect=0;fontSize=13;fontColor=#000000;" vertex="1" parent="1">
          <mxGeometry x="-10" y="230" width="30" height="60" as="geometry" />
        </mxCell>
        <mxCell id="Gl6gJ1XVhU7fnhNbAst0-25" value="Users" style="shape=umlActor;verticalLabelPosition=bottom;verticalAlign=top;html=1;outlineConnect=0;fontSize=13;fontColor=#000000;" vertex="1" parent="1">
          <mxGeometry x="-20" y="445" width="30" height="60" as="geometry" />
        </mxCell>
        <mxCell id="Gl6gJ1XVhU7fnhNbAst0-26" value="&lt;font style=&quot;font-size: 16px; user-select: auto;&quot;&gt;Ethereum Client&lt;/font&gt;" style="text;html=1;strokeColor=none;fillColor=none;align=center;verticalAlign=middle;whiteSpace=wrap;rounded=0;fontSize=13;fontColor=#000000;" vertex="1" parent="1">
          <mxGeometry x="80.5" y="180" width="289" height="10" as="geometry" />
        </mxCell>
      </root>
    </mxGraphModel>
  </diagram>
</mxfile>
